<?xml version="1.0" encoding="UTF-8" standalone="no"?>
<!DOCTYPE svg PUBLIC "-//W3C//DTD SVG 1.1//EN"
 "http://www.w3.org/Graphics/SVG/1.1/DTD/svg11.dtd">
<!-- Generated by graphviz version 9.0.0 (20230911.1827)
 -->
<!-- Pages: 1 -->
<svg width="190pt" height="341pt"
 viewBox="0.00 0.00 190.02 340.63" xmlns="http://www.w3.org/2000/svg" xmlns:xlink="http://www.w3.org/1999/xlink">
<g id="graph0" class="graph" transform="scale(1 1) rotate(0) translate(4 336.63)">
<polygon fill="white" stroke="none" points="-4,4 -4,-336.63 186.02,-336.63 186.02,4 -4,4"/>
<g id="clust1" class="cluster">
<title>cluster316031</title>
<path fill="none" stroke="black" d="M48.01,-8C48.01,-8 134.01,-8 134.01,-8 140.01,-8 146.01,-14 146.01,-20 146.01,-20 146.01,-211.32 146.01,-211.32 146.01,-217.32 140.01,-223.32 134.01,-223.32 134.01,-223.32 48.01,-223.32 48.01,-223.32 42.01,-223.32 36.01,-217.32 36.01,-211.32 36.01,-211.32 36.01,-20 36.01,-20 36.01,-14 42.01,-8 48.01,-8"/>
<text text-anchor="middle" x="117.76" y="-15.2" font-family="Times,serif" font-size="14.00">316031</text>
</g>
<!-- beta1 -->
<g id="node1" class="node">
<title>beta1</title>
<ellipse fill="none" stroke="black" cx="41.01" cy="-291.98" rx="41.01" ry="40.66"/>
<text text-anchor="middle" x="41.01" y="-303.43" font-family="Times,serif" font-size="14.00">beta1</text>
<text text-anchor="middle" x="41.01" y="-286.93" font-family="Times,serif" font-size="14.00">~</text>
<text text-anchor="middle" x="41.01" y="-270.43" font-family="Times,serif" font-size="14.00">Normal</text>
</g>
<!-- theta -->
<g id="node4" class="node">
<title>theta</title>
<polygon fill="none" stroke="black" points="136.14,-215.32 45.89,-215.32 45.89,-157.82 136.14,-157.82 136.14,-215.32"/>
<text text-anchor="middle" x="91.01" y="-198.02" font-family="Times,serif" font-size="14.00">theta</text>
<text text-anchor="middle" x="91.01" y="-181.52" font-family="Times,serif" font-size="14.00">~</text>
<text text-anchor="middle" x="91.01" y="-165.02" font-family="Times,serif" font-size="14.00">Deterministic</text>
</g>
<!-- beta1&#45;&gt;theta -->
<g id="edge1" class="edge">
<title>beta1&#45;&gt;theta</title>
<path fill="none" stroke="black" d="M58.5,-254.81C63,-245.5 67.86,-235.45 72.42,-226.03"/>
<polygon fill="black" stroke="black" points="75.53,-227.62 76.74,-217.09 69.23,-224.57 75.53,-227.62"/>
</g>
<!-- beta0 -->
<g id="node2" class="node">
<title>beta0</title>
<ellipse fill="none" stroke="black" cx="141.01" cy="-291.98" rx="41.01" ry="40.66"/>
<text text-anchor="middle" x="141.01" y="-303.43" font-family="Times,serif" font-size="14.00">beta0</text>
<text text-anchor="middle" x="141.01" y="-286.93" font-family="Times,serif" font-size="14.00">~</text>
<text text-anchor="middle" x="141.01" y="-270.43" font-family="Times,serif" font-size="14.00">Normal</text>
</g>
<!-- beta0&#45;&gt;theta -->
<g id="edge2" class="edge">
<title>beta0&#45;&gt;theta</title>
<path fill="none" stroke="black" d="M123.52,-254.81C119.02,-245.5 114.16,-235.45 109.61,-226.03"/>
<polygon fill="black" stroke="black" points="112.79,-224.57 105.29,-217.09 106.49,-227.62 112.79,-224.57"/>
</g>
<!-- p_spiral -->
<g id="node3" class="node">
<title>p_spiral</title>
<ellipse fill="lightgrey" stroke="black" cx="91.01" cy="-81.16" rx="47.38" ry="40.66"/>
<text text-anchor="middle" x="91.01" y="-92.61" font-family="Times,serif" font-size="14.00">p_spiral</text>
<text text-anchor="middle" x="91.01" y="-76.11" font-family="Times,serif" font-size="14.00">~</text>
<text text-anchor="middle" x="91.01" y="-59.61" font-family="Times,serif" font-size="14.00">Bernoulli</text>
</g>
<!-- theta&#45;&gt;p_spiral -->
<g id="edge3" class="edge">
<title>theta&#45;&gt;p_spiral</title>
<path fill="none" stroke="black" d="M91.01,-157.58C91.01,-150.1 91.01,-141.77 91.01,-133.45"/>
<polygon fill="black" stroke="black" points="94.51,-133.71 91.01,-123.71 87.51,-133.71 94.51,-133.71"/>
</g>
</g>
</svg>
